<svg xmlns="http://www.w3.org/2000/svg" xmlns:xlink="http://www.w3.org/1999/xlink" width="512" height="512" viewBox="0 0 512 512">
  <defs>
    <clipPath id="clip-path">
      <rect id="Rectangle_47" data-name="Rectangle 47" width="473" height="473" transform="translate(0.241 0.241)"/>
    </clipPath>
    <clipPath id="clip-b_home">
      <rect width="512" height="512"/>
    </clipPath>
  </defs>
  <g id="b_home" clip-path="url(#clip-b_home)">
    <g id="Docty_Web_Home" transform="translate(19.759 19.759)" clip-path="url(#clip-path)">
      <g id="home" transform="translate(49.912 29.574)">
        <path id="Path_1" data-name="Path 1" d="M152.071,194.358a15.99,15.99,0,0,1-15.98-15.982V71.844A26.671,26.671,0,0,0,109.457,45.21H66.847A26.671,26.671,0,0,0,40.21,71.844V178.376a15.98,15.98,0,1,1-31.96,0V71.844A58.642,58.642,0,0,1,66.844,13.25h42.61a58.642,58.642,0,0,1,58.594,58.594V178.376a15.99,15.99,0,0,1-15.977,15.982Z" transform="translate(98.284 220.532)" fill="#0bb8fc"/>
        <path id="Path_2" data-name="Path 2" d="M317.526,417.164H61.844A58.642,58.642,0,0,1,3.25,358.57V165.1A58.533,58.533,0,0,1,23.7,120.616L141.809,19.4c26.634-22.841,69.119-22.841,95.757,0l118.1,101.211A58.5,58.5,0,0,1,376.125,165.1V358.57a58.642,58.642,0,0,1-58.6,58.594ZM189.685,33.641A41.665,41.665,0,0,0,162.6,43.655L44.5,144.863a26.625,26.625,0,0,0-9.315,20.22V358.549a26.671,26.671,0,0,0,26.638,26.634H317.5a26.671,26.671,0,0,0,26.634-26.634V165.083a26.554,26.554,0,0,0-9.311-20.22L216.723,43.656a41.665,41.665,0,0,0-27.082-10.014Z" transform="translate(-3.25 -2.274)" fill="#fe065c"/>
      </g>
    </g>
  </g>
</svg>
